<?xml version="1.0" encoding="UTF-8"?>
<!DOCTYPE svg PUBLIC "-//W3C//DTD SVG 1.1//EN" "http://www.w3.org/Graphics/SVG/1.1/DTD/svg11.dtd">
<!-- Creator: CorelDRAW 2020 (64-Bit) -->
<svg xmlns="http://www.w3.org/2000/svg" xml:space="preserve" width="1494px" height="340px" version="1.1" style="shape-rendering:geometricPrecision; text-rendering:geometricPrecision; image-rendering:optimizeQuality; fill-rule:evenodd; clip-rule:evenodd"
viewBox="0 0 1305.99 297.3"
 xmlns:xlink="http://www.w3.org/1999/xlink"
 xmlns:xodm="http://www.corel.com/coreldraw/odm/2003">
 <defs>
  <style type="text/css">
   <![CDATA[
    .fil0 {fill:#FEFEFE}
    .fil1 {fill:#6E0F27;fill-rule:nonzero}
   ]]>
  </style>
 </defs>
 <g id="Слой_x0020_1">
  <metadata id="CorelCorpID_0Corel-Layer"/>
  <path class="fil0" d="M297.29 0l-297.29 0 0 0c0,163.51 133.78,297.3 297.29,297.3l0 0 0 -297.3zm-297.29 226.39l0 0 0 70.91 70.91 0 0 -0.01c0,-38.99 -31.91,-70.9 -70.91,-70.9z"/>
  <path class="fil1" d="M432.94 31.51c6.88,0 12.97,0.67 18.27,2.03 5.3,1.35 10.04,3.1 14.21,5.24l-5.25 17.25c-4.62,-2.25 -9.07,-3.97 -13.36,-5.16 -4.28,-1.18 -8.46,-1.77 -12.52,-1.77 -5.41,0 -9.61,1.07 -12.6,3.21 -2.99,2.14 -4.48,5.02 -4.48,8.63 0,3.72 1.3,6.54 3.89,8.46 2.59,1.91 6.77,3.77 12.52,5.58l10.15 3.21c8.45,2.82 15.08,6.83 19.87,12.01 4.79,5.19 7.19,11.56 7.19,19.12 0,4.51 -0.85,8.74 -2.54,12.68 -1.69,3.95 -4.23,7.39 -7.61,10.32 -3.38,2.93 -7.61,5.25 -12.68,6.94 -5.08,1.69 -11,2.53 -17.77,2.53 -12.74,0 -24.41,-2.59 -35.01,-7.78l5.24 -17.25c4.85,2.37 9.59,4.2 14.21,5.5 4.62,1.29 9.47,1.94 14.55,1.94 5.98,0 10.49,-1.1 13.53,-3.3 3.05,-2.19 4.57,-5.27 4.57,-9.22 0,-1.35 -0.26,-2.67 -0.76,-3.97 -0.51,-1.3 -1.44,-2.54 -2.79,-3.72 -1.36,-1.18 -3.19,-2.37 -5.5,-3.55 -2.31,-1.19 -5.33,-2.34 -9.05,-3.47l-8.97 -3.05c-3.94,-1.35 -7.55,-2.93 -10.82,-4.73 -3.27,-1.81 -6.06,-3.89 -8.37,-6.26 -2.32,-2.37 -4.12,-5.16 -5.42,-8.37 -1.29,-3.22 -1.94,-6.97 -1.94,-11.25 0,-4.63 0.84,-8.88 2.53,-12.77 1.7,-3.89 4.2,-7.25 7.53,-10.07 3.33,-2.82 7.44,-5.02 12.35,-6.6 4.9,-1.57 10.52,-2.36 16.83,-2.36zm55.99 34.84c4.85,-2.82 9.98,-4.99 15.39,-6.51 5.42,-1.52 11.17,-2.28 17.26,-2.28 4.85,0 9.27,0.56 13.27,1.69 4.01,1.13 7.45,2.9 10.32,5.33 2.88,2.42 5.08,5.52 6.6,9.3 1.52,3.78 2.28,8.32 2.28,13.62l0 52.43 -17.42 0 -2.03 -8.28 -0.68 0c-2.59,3.15 -5.89,5.63 -9.89,7.44 -4,1.8 -8.66,2.7 -13.96,2.7 -4.39,0 -8.28,-0.64 -11.67,-1.94 -3.38,-1.3 -6.26,-3.05 -8.62,-5.24 -2.37,-2.2 -4.15,-4.83 -5.33,-7.87 -1.19,-3.04 -1.78,-6.31 -1.78,-9.81 0,-4.62 0.99,-8.6 2.96,-11.93 1.97,-3.32 4.71,-6.06 8.21,-8.2 3.49,-2.14 7.58,-3.72 12.26,-4.74 4.68,-1.01 9.73,-1.52 15.14,-1.52l10.15 0 0 -4.9c0,-3.73 -1.16,-6.46 -3.47,-8.21 -2.31,-1.75 -5.55,-2.62 -9.73,-2.62 -3.27,0 -6.62,0.51 -10.06,1.52 -3.44,1.02 -7.25,2.65 -11.42,4.91l-7.78 -14.89zm42.63 38.23l-7.28 0.17c-6.88,0.23 -11.67,1.38 -14.37,3.47 -2.71,2.08 -4.07,4.59 -4.07,7.53 0,3.83 1.16,6.45 3.47,7.86 2.31,1.41 4.94,2.11 7.87,2.11 2.93,0 5.72,-0.84 8.37,-2.53 2.65,-1.69 4.65,-3.67 6.01,-5.92l0 -12.69zm41.61 35.35l0 -80.68 17.42 0 2.54 14.55c1.92,-4.29 4.96,-8.07 9.13,-11.34 4.18,-3.27 9.42,-4.9 15.73,-4.9 2.6,0 4.91,0.28 6.94,0.84 2.03,0.57 3.72,1.24 5.07,2.03l-3.72 17.76c-1.24,-0.67 -2.82,-1.27 -4.73,-1.77 -1.92,-0.51 -4.18,-0.76 -6.77,-0.76 -5.53,0 -10.12,1.83 -13.79,5.49 -3.66,3.67 -5.49,9.67 -5.49,18.02l0 40.76 -22.33 0zm145.98 -40.09c0,6.43 -0.96,12.24 -2.88,17.43 -1.92,5.19 -4.57,9.61 -7.95,13.28 -3.38,3.66 -7.39,6.45 -12.01,8.37 -4.62,1.92 -9.64,2.87 -15.05,2.87 -5.3,0 -9.81,-0.81 -13.54,-2.45 -3.72,-1.63 -6.99,-3.92 -9.81,-6.85l-0.67 0 -1.53 7.44 -16.23 0 0 -120.77 22.32 0 0 46.68c2.82,-2.59 6.12,-4.62 9.9,-6.08 3.78,-1.47 7.81,-2.2 12.09,-2.2 11.06,0 19.71,3.72 25.97,11.16 6.26,7.44 9.39,17.82 9.39,31.12zm-23.18 0.51c0,-8.34 -1.63,-14.69 -4.9,-19.03 -3.27,-4.34 -7.9,-6.51 -13.87,-6.51 -3.16,0 -6.09,0.76 -8.8,2.28 -2.7,1.53 -4.85,3.25 -6.43,5.16l0 37.05c1.47,1.69 3.36,3.1 5.67,4.23 2.31,1.12 4.76,1.69 7.36,1.69 2.7,0 5.33,-0.51 7.86,-1.52 2.54,-1.02 4.8,-2.54 6.77,-4.57 1.97,-2.03 3.52,-4.6 4.65,-7.7 1.13,-3.1 1.69,-6.79 1.69,-11.08zm117.73 -1.35c0,6.65 -1.07,12.63 -3.21,17.93 -2.14,5.3 -5.1,9.78 -8.88,13.45 -3.78,3.66 -8.2,6.48 -13.28,8.45 -5.07,1.98 -10.54,2.96 -16.41,2.96 -5.86,0 -11.3,-0.9 -16.32,-2.7 -5.02,-1.81 -9.36,-4.46 -13.02,-7.95 -3.67,-3.5 -6.55,-7.81 -8.63,-12.94 -2.09,-5.13 -3.13,-10.97 -3.13,-17.51 0,-6.88 1.07,-13 3.21,-18.35 2.15,-5.36 5.11,-9.87 8.88,-13.54 3.78,-3.66 8.21,-6.45 13.28,-8.37 5.08,-1.92 10.55,-2.87 16.41,-2.87 5.86,0 11.3,0.9 16.32,2.7 5.02,1.81 9.36,4.43 13.03,7.87 3.66,3.44 6.54,7.75 8.62,12.94 2.09,5.19 3.13,11.16 3.13,17.93zm-23.17 0.84c0,-4.62 -0.51,-8.57 -1.52,-11.84 -1.02,-3.27 -2.37,-5.92 -4.06,-7.95 -1.69,-2.03 -3.67,-3.52 -5.92,-4.48 -2.26,-0.96 -4.57,-1.44 -6.94,-1.44 -2.37,0 -4.62,0.43 -6.76,1.27 -2.15,0.85 -4.06,2.26 -5.76,4.23 -1.69,1.97 -3.04,4.6 -4.05,7.87 -1.02,3.27 -1.53,7.38 -1.53,12.34 0,4.4 0.51,8.21 1.53,11.42 1.01,3.22 2.39,5.84 4.14,7.87 1.75,2.03 3.72,3.55 5.92,4.57 2.2,1.01 4.48,1.52 6.85,1.52 2.37,0 4.62,-0.43 6.77,-1.27 2.14,-0.85 4.06,-2.28 5.75,-4.31 1.69,-2.03 3.04,-4.66 4.06,-7.87 1.01,-3.21 1.52,-7.19 1.52,-11.93zm61.74 40.09l-22.5 0 0 -80.68 17.6 0 2.7 10.32c3.72,-3.84 7.81,-6.8 12.27,-8.88 4.45,-2.09 9.38,-3.13 14.8,-3.13 8.91,0 15.73,2.42 20.46,7.27 4.74,4.85 7.11,11.9 7.11,21.14l0 53.96 -22.5 0 0 -51.59c0,-4.17 -1.01,-7.47 -3.04,-9.89 -2.03,-2.43 -5.02,-3.64 -8.97,-3.64 -2.93,0 -6,0.82 -9.22,2.45 -3.21,1.64 -6.12,3.87 -8.71,6.68l0 55.99z"/>
  <path class="fil1" d="M393.72 169.71l23.18 0 0 63.77c0,8.8 1.77,15.48 5.33,20.05 3.55,4.56 9.05,6.85 16.49,6.85 7.33,0 12.63,-2.31 15.9,-6.94 3.27,-4.62 4.91,-10.6 4.91,-17.93l0 -65.8 23.17 0 0 64.11c0,14.89 -3.69,25.99 -11.08,33.32 -7.39,7.33 -18.35,11 -32.9,11 -13.98,0 -24.98,-3.67 -32.99,-11 -8,-7.33 -12.01,-18.72 -12.01,-34.17l0 -63.26zm133.13 106.57l-22.5 0 0 -80.69 17.59 0 2.71 10.32c3.72,-3.83 7.81,-6.8 12.26,-8.88 4.46,-2.09 9.39,-3.13 14.8,-3.13 8.91,0 15.74,2.42 20.47,7.27 4.74,4.85 7.11,11.9 7.11,21.15l0 53.96 -22.5 0 0 -51.59c0,-4.18 -1.02,-7.48 -3.05,-9.9 -2.03,-2.42 -5.01,-3.64 -8.96,-3.64 -2.93,0 -6.01,0.82 -9.22,2.46 -3.21,1.63 -6.12,3.86 -8.71,6.68l0 55.99zm74.76 0l0 -80.69 22.5 0 0 80.69 -22.5 0zm11.34 -97.94c-3.84,0 -6.82,-1.1 -8.97,-3.3 -2.14,-2.2 -3.21,-4.94 -3.21,-8.21 0,-3.27 1.07,-6 3.21,-8.2 2.15,-2.2 5.13,-3.3 8.97,-3.3 3.72,0 6.68,1.1 8.88,3.3 2.2,2.2 3.3,4.93 3.3,8.2 0,3.27 -1.07,6.01 -3.22,8.21 -2.14,2.2 -5.13,3.3 -8.96,3.3zm83.56 17.25l23.85 0 -28.59 80.69 -26.05 0 -27.74 -80.69 24.02 0 11.84 40.26 4.91 24.36 0.68 0 4.9 -24.36 12.18 -40.26zm105.72 46.18l-53.62 0 0 0.68c0,6.42 2.26,11.22 6.77,14.37 4.51,3.16 10.32,4.74 17.42,4.74 4.51,0 8.49,-0.45 11.92,-1.35 3.44,-0.9 6.57,-1.98 9.39,-3.22l4.06 15.73c-3.04,1.47 -6.88,2.74 -11.5,3.81 -4.62,1.07 -10.09,1.61 -16.41,1.61 -6.09,0 -11.81,-0.82 -17.17,-2.45 -5.35,-1.64 -10.03,-4.15 -14.04,-7.53 -4,-3.38 -7.19,-7.67 -9.55,-12.86 -2.37,-5.19 -3.56,-11.39 -3.56,-18.6 0,-6.43 0.96,-12.27 2.88,-17.51 1.92,-5.25 4.65,-9.73 8.2,-13.45 3.56,-3.72 7.81,-6.63 12.77,-8.71 4.97,-2.09 10.49,-3.13 16.58,-3.13 10.94,0 19.65,3.33 26.14,9.98 6.48,6.65 9.72,15.96 9.72,27.91l0 9.98zm-23 -15.39c0,-2.15 -0.26,-4.23 -0.76,-6.26 -0.51,-2.03 -1.33,-3.81 -2.46,-5.33 -1.12,-1.52 -2.53,-2.74 -4.23,-3.64 -1.69,-0.9 -3.77,-1.35 -6.25,-1.35 -4.51,0 -8.24,1.52 -11.17,4.57 -2.93,3.04 -4.68,7.16 -5.24,12.34l30.11 -0.33zm38.9 49.9l0 -80.69 17.43 0 2.53 14.55c1.92,-4.29 4.97,-8.06 9.14,-11.34 4.17,-3.27 9.41,-4.9 15.73,-4.9 2.59,0 4.9,0.28 6.93,0.85 2.03,0.56 3.73,1.23 5.08,2.02l-3.72 17.77c-1.24,-0.68 -2.82,-1.27 -4.74,-1.78 -1.92,-0.51 -4.17,-0.76 -6.76,-0.76 -5.53,0 -10.13,1.83 -13.79,5.5 -3.67,3.66 -5.5,9.67 -5.5,18.01l0 40.77 -22.33 0zm114.69 -61.41c-6.65,-3.15 -13.08,-4.73 -19.28,-4.73 -3.61,0 -6.4,0.62 -8.38,1.86 -1.97,1.24 -2.96,2.93 -2.96,5.07 0,2.15 0.88,3.89 2.62,5.25 1.75,1.35 5.28,2.82 10.58,4.39l5.07 1.53c6.99,2.03 12.29,4.96 15.9,8.79 3.61,3.84 5.42,8.8 5.42,14.89 0,8.01 -3.08,14.38 -9.22,19.11 -6.15,4.74 -14.47,7.11 -24.95,7.11 -10.72,0 -19.91,-1.92 -27.58,-5.75l5.08 -16.58c3.27,1.69 6.71,3.07 10.32,4.14 3.61,1.08 7.27,1.61 10.99,1.61 4.51,0 7.81,-0.7 9.9,-2.11 2.08,-1.41 3.13,-3.25 3.13,-5.5 0,-2.37 -1.02,-4.2 -3.05,-5.5 -2.03,-1.3 -5.86,-2.73 -11.5,-4.31l-5.24 -1.52c-6.77,-2.26 -11.73,-5.25 -14.89,-8.97 -3.16,-3.72 -4.74,-8.68 -4.74,-14.89 0,-7.32 2.77,-13.3 8.29,-17.93 5.53,-4.62 13.25,-6.93 23.18,-6.93 9.81,0 18.49,1.75 26.05,5.24l-4.74 15.73zm26.73 61.41l0 -80.69 22.49 0 0 80.69 -22.49 0zm11.33 -97.94c-3.83,0 -6.82,-1.1 -8.96,-3.3 -2.15,-2.2 -3.22,-4.94 -3.22,-8.21 0,-3.27 1.07,-6 3.22,-8.2 2.14,-2.2 5.13,-3.3 8.96,-3.3 3.72,0 6.68,1.1 8.88,3.3 2.2,2.2 3.3,4.93 3.3,8.2 0,3.27 -1.07,6.01 -3.21,8.21 -2.15,2.2 -5.14,3.3 -8.97,3.3zm81.7 33.49l-21.48 0 0 37.21c0,3.84 0.87,6.46 2.62,7.87 1.75,1.41 4.09,2.11 7.02,2.11 2.26,0 4.57,-0.22 6.94,-0.67 2.36,-0.45 4.28,-1.07 5.75,-1.86l3.38 15.73c-1.92,0.9 -4.79,1.8 -8.63,2.7 -3.83,0.91 -7.89,1.36 -12.18,1.36 -9.81,0 -16.8,-1.95 -20.97,-5.84 -4.17,-3.89 -6.26,-9.73 -6.26,-17.51l0 -41.1 -12.52 0 0 -16.24 12.52 0 0 -24.87 22.33 0 0 24.87 21.48 0 0 16.24zm88.3 29.94l-53.62 0 0 0.68c0,6.42 2.25,11.22 6.76,14.37 4.52,3.16 10.32,4.74 17.43,4.74 4.51,0 8.48,-0.45 11.92,-1.35 3.44,-0.9 6.57,-1.98 9.39,-3.22l4.06 15.73c-3.04,1.47 -6.88,2.74 -11.5,3.81 -4.62,1.07 -10.09,1.61 -16.41,1.61 -6.09,0 -11.81,-0.82 -17.17,-2.45 -5.36,-1.64 -10.04,-4.15 -14.04,-7.53 -4,-3.38 -7.19,-7.67 -9.56,-12.86 -2.36,-5.19 -3.55,-11.39 -3.55,-18.6 0,-6.43 0.96,-12.27 2.88,-17.51 1.91,-5.25 4.65,-9.73 8.2,-13.45 3.55,-3.72 7.81,-6.63 12.77,-8.71 4.97,-2.09 10.49,-3.13 16.58,-3.13 10.94,0 19.65,3.33 26.13,9.98 6.49,6.65 9.73,15.96 9.73,27.91l0 9.98zm-23 -15.39c0,-2.15 -0.26,-4.23 -0.77,-6.26 -0.5,-2.03 -1.32,-3.81 -2.45,-5.33 -1.13,-1.52 -2.53,-2.74 -4.23,-3.64 -1.69,-0.9 -3.77,-1.35 -6.26,-1.35 -4.51,0 -8.23,1.52 -11.16,4.57 -2.93,3.04 -4.68,7.16 -5.24,12.34l30.11 -0.33zm87.11 -14.55l-21.48 0 0 37.21c0,3.84 0.87,6.46 2.62,7.87 1.75,1.41 4.09,2.11 7.02,2.11 2.26,0 4.57,-0.22 6.93,-0.67 2.37,-0.45 4.29,-1.07 5.76,-1.86l3.38 15.73c-1.92,0.9 -4.79,1.8 -8.63,2.7 -3.83,0.91 -7.89,1.36 -12.18,1.36 -9.81,0 -16.8,-1.95 -20.97,-5.84 -4.17,-3.89 -6.26,-9.73 -6.26,-17.51l0 -41.1 -12.52 0 0 -16.24 12.52 0 0 -24.87 22.33 0 0 24.87 21.48 0 0 16.24zm18.27 64.45l0 -80.69 22.5 0 0 80.69 -22.5 0zm11.33 -97.94c-3.83,0 -6.82,-1.1 -8.96,-3.3 -2.15,-2.2 -3.22,-4.94 -3.22,-8.21 0,-3.27 1.07,-6 3.22,-8.2 2.14,-2.2 5.13,-3.3 8.96,-3.3 3.72,0 6.68,1.1 8.88,3.3 2.2,2.2 3.3,4.93 3.3,8.2 0,3.27 -1.07,6.01 -3.21,8.21 -2.14,2.2 -5.13,3.3 -8.97,3.3z"/>
  <path class="fil1" d="M1287.41 155.33c5.13,0 9.78,2.08 13.14,5.45 3.36,3.36 5.44,8.01 5.44,13.14 0,5.13 -2.08,9.78 -5.44,13.14 -3.36,3.37 -8.01,5.45 -13.14,5.45 -5.14,0 -9.78,-2.08 -13.15,-5.45 -3.36,-3.36 -5.44,-8.01 -5.44,-13.14 0,-5.13 2.08,-9.78 5.44,-13.14 3.37,-3.37 8.01,-5.45 13.15,-5.45zm-8.31 28.53l0 -19.88 8.81 0c1.77,0 3.12,0.18 4.04,0.53 0.92,0.36 1.66,0.99 2.21,1.89 0.55,0.9 0.82,1.9 0.82,3 0,1.41 -0.45,2.6 -1.37,3.57 -0.91,0.96 -2.32,1.57 -4.22,1.84 0.7,0.33 1.22,0.66 1.58,0.99 0.77,0.7 1.5,1.59 2.18,2.65l3.44 5.41 -3.29 0 -2.63 -4.14c-0.76,-1.19 -1.39,-2.11 -1.89,-2.74 -0.5,-0.63 -0.94,-1.07 -1.34,-1.33 -0.39,-0.25 -0.79,-0.42 -1.2,-0.53 -0.29,-0.06 -0.78,-0.09 -1.46,-0.09l-3.05 0 0 8.83 -2.63 0zm2.63 -11.11l5.65 0c1.21,0 2.14,-0.12 2.82,-0.37 0.67,-0.25 1.19,-0.65 1.53,-1.2 0.36,-0.54 0.53,-1.14 0.53,-1.78 0,-0.94 -0.34,-1.72 -1.02,-2.32 -0.68,-0.61 -1.75,-0.91 -3.22,-0.91l-6.29 0 0 6.58zm17.27 -10.43c-2.96,-2.97 -7.06,-4.8 -11.59,-4.8 -4.53,0 -8.63,1.83 -11.6,4.8 -2.97,2.97 -4.81,7.07 -4.81,11.6 0,4.53 1.84,8.63 4.81,11.6 2.97,2.96 7.07,4.8 11.6,4.8 4.53,0 8.63,-1.84 11.59,-4.8 2.97,-2.97 4.81,-7.07 4.81,-11.6 0,-4.53 -1.84,-8.63 -4.81,-11.6z"/>
 </g>
</svg>
