<?xml version="1.0" encoding="UTF-8"?>
<!DOCTYPE svg PUBLIC "-//W3C//DTD SVG 1.1//EN" "http://www.w3.org/Graphics/SVG/1.1/DTD/svg11.dtd">
<!-- Creator: CorelDRAW 2020 (64-Bit) -->
<svg xmlns="http://www.w3.org/2000/svg" xml:space="preserve" width="6669px" height="7499px" version="1.1" style="shape-rendering:geometricPrecision; text-rendering:geometricPrecision; image-rendering:optimizeQuality; fill-rule:evenodd; clip-rule:evenodd"
viewBox="0 0 6560.78 7377.26"
 xmlns:xlink="http://www.w3.org/1999/xlink"
 xmlns:xodm="http://www.corel.com/coreldraw/odm/2003">
 <defs>
  <style type="text/css">
   <![CDATA[
    .str0 {stroke:white;stroke-width:34.83;stroke-miterlimit:22.9256;stroke-opacity:0.078431}
    .fil6 {fill:none}
    .fil5 {fill:none;fill-rule:nonzero}
    .fil0 {fill:#2D4255}
    .fil9 {fill:#3E5163}
    .fil7 {fill:#FEFEFE}
    .fil8 {fill:#FEFEFE;fill-rule:nonzero}
    .fil1 {fill:#2D4255;fill-rule:nonzero}
    .fil4 {fill:white;fill-rule:nonzero;fill-opacity:0.078431}
    .fil2 {fill:url(#id1);fill-rule:nonzero}
    .fil3 {fill:url(#id2);fill-rule:nonzero}
   ]]>
  </style>
    <clipPath id="id0">
     <path d="M0 7377.26l6560.78 0 0 -7377.26 -6560.78 0 0 7377.26z"/>
    </clipPath>
  <linearGradient id="id1" gradientUnits="userSpaceOnUse" x1="3275.33" y1="831.26" x2="3275.33" y2="6537.11">
   <stop offset="0" style="stop-opacity:0.0588235; stop-color:white"/>
   <stop offset="1" style="stop-opacity:0; stop-color:white"/>
  </linearGradient>
  <linearGradient id="id2" gradientUnits="userSpaceOnUse" xlink:href="#id1" x1="3275.33" y1="1630.89" x2="3275.33" y2="5714.89">
  </linearGradient>
 </defs>
 <g id="Слой_x0020_1">
  <metadata id="CorelCorpID_0Corel-Layer"/>
  <g id="_1616610842544">
   <polygon class="fil0" points="0,7377.26 6560.78,7377.26 6560.78,0 0,0 "/>
   <polygon class="fil0" points="0,7377.26 6560.78,7377.26 6560.78,0 0,0 "/>
   <g style="clip-path:url(#id0)">
    <g>
     <rect class="fil1" width="6560.78" height="7377.26"/>
     <circle class="fil2" cx="3275.56" cy="3688.61" r="2852.93"/>
     <circle class="fil3" cx="3282.6" cy="3681.61" r="2039.78"/>
     <polygon class="fil4" points="509.1,864.51 1085.47,864.51 1085.47,288.18 509.1,288.18 "/>
     <polygon class="fil5 str0" points="814.72,1135.25 1356.21,1135.25 1356.21,593.76 814.72,593.76 "/>
     <path class="fil4" d="M6827.37 5528.26c-89.95,-12.51 -181.52,-7.23 -269.39,15.63 -87.91,22.86 -170.45,62.8 -242.92,117.55 -72.46,54.76 -133.45,123.25 -179.44,201.54 -45.99,78.33 -76.12,164.94 -88.64,254.89 -12.56,89.94 -7.23,181.47 15.63,269.39 22.82,87.91 62.75,170.45 117.55,242.91 54.71,72.47 123.2,133.45 201.54,179.45 78.29,45.99 164.89,76.12 254.89,88.63l95.37 -684.97 95.41 -685.02z"/>
    </g>
   </g>
   <polygon class="fil6" points="0,7377.26 6560.78,7377.26 6560.78,0 0,0 "/>
   <polygon class="fil6" points="0,7377.26 6560.78,7377.26 6560.78,0 0,0 "/>
  </g>
  <g id="_1616610852960">
   <path class="fil7" d="M4008.68 2761.09l-1422.72 0 0 0c0,782.38 640.34,1422.72 1422.72,1422.72l0 0 0 -1422.72zm-1422.72 1083.29l0 0 0 339.43 339.43 0 0 0c0,-186.81 -152.62,-339.43 -339.43,-339.43z"/>
  </g>
  <g id="_1616610855312">
   <path class="fil8" d="M2647.16 4268.37c10.73,0 20.22,1.05 28.49,3.16 8.27,2.11 15.65,4.84 22.16,8.18l-8.18 26.91c-7.21,-3.52 -14.16,-6.2 -20.84,-8.05 -6.68,-1.85 -13.19,-2.77 -19.52,-2.77 -8.44,0 -14.99,1.67 -19.65,5.01 -4.66,3.34 -6.99,7.83 -6.99,13.46 0,5.8 2.02,10.2 6.06,13.19 4.05,2.99 10.56,5.89 19.52,8.7l15.83 5.01c13.19,4.4 23.52,10.64 31,18.73 7.47,8.09 11.21,18.03 11.21,29.81 0,7.04 -1.32,13.63 -3.96,19.79 -2.64,6.15 -6.59,11.52 -11.87,16.09 -5.27,4.57 -11.87,8.18 -19.78,10.81 -7.92,2.64 -17.15,3.96 -27.7,3.96 -19.87,0 -38.08,-4.04 -54.61,-12.13l8.18 -26.91c7.56,3.69 14.95,6.55 22.16,8.57 7.21,2.03 14.77,3.04 22.69,3.04 9.32,0 16.35,-1.72 21.1,-5.15 4.75,-3.43 7.12,-8.22 7.12,-14.38 0,-2.1 -0.39,-4.17 -1.18,-6.19 -0.8,-2.03 -2.25,-3.96 -4.36,-5.81 -2.11,-1.84 -4.97,-3.69 -8.57,-5.54 -3.61,-1.84 -8.31,-3.65 -14.11,-5.4l-13.98 -4.75c-6.16,-2.11 -11.79,-4.58 -16.89,-7.39 -5.1,-2.81 -9.45,-6.07 -13.05,-9.76 -3.61,-3.69 -6.42,-8.05 -8.45,-13.06 -2.02,-5.01 -3.03,-10.86 -3.03,-17.54 0,-7.21 1.32,-13.85 3.96,-19.91 2.63,-6.07 6.55,-11.31 11.74,-15.7 5.18,-4.4 11.6,-7.83 19.25,-10.29 7.65,-2.46 16.4,-3.69 26.25,-3.69zm87.31 54.34c7.57,-4.4 15.57,-7.78 24.01,-10.16 8.44,-2.37 17.41,-3.56 26.91,-3.56 7.56,0 14.46,0.88 20.7,2.64 6.25,1.76 11.61,4.53 16.1,8.31 4.48,3.78 7.91,8.62 10.28,14.51 2.38,5.89 3.57,12.97 3.57,21.23l0 81.78 -27.18 0 -3.16 -12.93 -1.06 0c-4.04,4.93 -9.18,8.8 -15.43,11.61 -6.24,2.81 -13.5,4.22 -21.76,4.22 -6.86,0 -12.93,-1.01 -18.2,-3.03 -5.28,-2.03 -9.76,-4.75 -13.46,-8.18 -3.69,-3.43 -6.46,-7.52 -8.31,-12.27 -1.84,-4.75 -2.77,-9.84 -2.77,-15.3 0,-7.21 1.54,-13.41 4.62,-18.59 3.08,-5.19 7.34,-9.46 12.79,-12.8 5.46,-3.34 11.83,-5.8 19.13,-7.38 7.3,-1.59 15.17,-2.38 23.61,-2.38l15.83 0 0 -7.65c0,-5.8 -1.81,-10.07 -5.41,-12.79 -3.61,-2.73 -8.66,-4.09 -15.17,-4.09 -5.1,0 -10.33,0.79 -15.69,2.37 -5.37,1.58 -11.31,4.13 -17.81,7.65l-12.14 -23.21zm66.48 59.62l-11.34 0.26c-10.73,0.35 -18.2,2.15 -22.42,5.41 -4.23,3.25 -6.34,7.16 -6.34,11.74 0,5.98 1.81,10.06 5.41,12.26 3.61,2.2 7.7,3.3 12.27,3.3 4.57,0 8.92,-1.32 13.06,-3.96 4.13,-2.63 7.25,-5.71 9.36,-9.23l0 -19.78zm64.89 55.13l0 -125.83 27.17 0 3.96 22.69c2.99,-6.69 7.74,-12.58 14.25,-17.68 6.5,-5.1 14.68,-7.65 24.53,-7.65 4.04,0 7.65,0.44 10.81,1.32 3.17,0.88 5.81,1.94 7.92,3.17l-5.8 27.69c-1.94,-1.05 -4.4,-1.97 -7.39,-2.77 -2.99,-0.79 -6.51,-1.18 -10.55,-1.18 -8.62,0 -15.79,2.86 -21.5,8.57 -5.72,5.72 -8.57,15.08 -8.57,28.09l0 63.58 -34.83 0zm227.66 -62.52c0,10.02 -1.5,19.08 -4.49,27.17 -2.99,8.09 -7.12,14.99 -12.4,20.71 -5.27,5.71 -11.52,10.07 -18.73,13.06 -7.21,2.99 -15.03,4.48 -23.47,4.48 -8.27,0 -15.3,-1.27 -21.11,-3.82 -5.8,-2.55 -10.9,-6.12 -15.3,-10.69l-1.05 0 -2.38 11.61 -25.32 0 0 -188.35 34.82 0 0 72.81c4.4,-4.05 9.54,-7.21 15.43,-9.5 5.89,-2.29 12.18,-3.43 18.86,-3.43 17.24,0 30.74,5.8 40.5,17.41 9.76,11.61 14.64,27.79 14.64,48.54zm-36.14 0.79c0,-13.01 -2.55,-22.9 -7.65,-29.68 -5.1,-6.77 -12.31,-10.15 -21.63,-10.15 -4.93,0 -9.5,1.19 -13.72,3.56 -4.22,2.37 -7.56,5.06 -10.03,8.04l0 57.77c2.29,2.64 5.24,4.84 8.84,6.6 3.61,1.76 7.43,2.64 11.48,2.64 4.22,0 8.31,-0.79 12.26,-2.38 3.96,-1.58 7.48,-3.95 10.55,-7.12 3.08,-3.16 5.5,-7.16 7.26,-12 1.76,-4.84 2.64,-10.6 2.64,-17.28zm183.6 -2.11c0,10.38 -1.67,19.7 -5.02,27.96 -3.34,8.27 -7.95,15.26 -13.84,20.97 -5.9,5.72 -12.8,10.12 -20.71,13.19 -7.91,3.08 -16.44,4.62 -25.59,4.62 -9.15,0 -17.63,-1.41 -25.46,-4.22 -7.82,-2.81 -14.59,-6.95 -20.31,-12.4 -5.71,-5.45 -10.2,-12.18 -13.45,-20.18 -3.25,-8 -4.88,-17.1 -4.88,-27.3 0,-10.73 1.67,-20.27 5.01,-28.62 3.34,-8.36 7.96,-15.39 13.85,-21.11 5.89,-5.71 12.79,-10.07 20.71,-13.05 7.91,-2.99 16.44,-4.49 25.59,-4.49 9.14,0 17.63,1.41 25.45,4.22 7.83,2.82 14.6,6.91 20.31,12.27 5.72,5.36 10.2,12.09 13.46,20.18 3.25,8.09 4.88,17.41 4.88,27.96zm-36.14 1.32c0,-7.21 -0.79,-13.37 -2.38,-18.46 -1.58,-5.11 -3.69,-9.24 -6.33,-12.4 -2.63,-3.17 -5.71,-5.5 -9.23,-6.99 -3.52,-1.5 -7.12,-2.25 -10.82,-2.25 -3.69,0 -7.21,0.66 -10.55,1.98 -3.34,1.32 -6.33,3.52 -8.97,6.6 -2.63,3.07 -4.75,7.16 -6.33,12.26 -1.58,5.1 -2.37,11.52 -2.37,19.26 0,6.86 0.79,12.79 2.37,17.81 1.58,5.01 3.74,9.1 6.47,12.26 2.72,3.17 5.8,5.54 9.23,7.12 3.43,1.59 6.99,2.38 10.68,2.38 3.7,0 7.21,-0.66 10.55,-1.98 3.35,-1.32 6.34,-3.56 8.97,-6.73 2.64,-3.16 4.75,-7.25 6.33,-12.26 1.59,-5.02 2.38,-11.21 2.38,-18.6zm96.28 62.52l-35.08 0 0 -125.83 27.43 0 4.22 16.09c5.81,-5.98 12.18,-10.6 19.13,-13.85 6.95,-3.25 14.64,-4.88 23.08,-4.88 13.89,0 24.53,3.78 31.92,11.34 7.39,7.57 11.08,18.56 11.08,32.98l0 84.15 -35.09 0 0 -80.46c0,-6.5 -1.58,-11.65 -4.74,-15.43 -3.17,-3.78 -7.83,-5.67 -13.98,-5.67 -4.58,0 -9.37,1.27 -14.38,3.82 -5.01,2.55 -9.54,6.03 -13.59,10.42l0 87.32z"/>
   <path class="fil8" d="M2586 4483.89l36.14 0 0 99.45c0,13.72 2.77,24.14 8.31,31.26 5.54,7.13 14.12,10.69 25.72,10.69 11.43,0 19.7,-3.61 24.8,-10.82 5.1,-7.21 7.65,-16.53 7.65,-27.96l0 -102.62 36.14 0 0 99.98c0,23.22 -5.76,40.54 -17.28,51.97 -11.52,11.43 -28.62,17.15 -51.31,17.15 -21.8,0 -38.95,-5.72 -51.44,-17.15 -12.48,-11.43 -18.73,-29.19 -18.73,-53.29l0 -98.66zm207.61 166.19l-35.08 0 0 -125.83 27.43 0 4.22 16.1c5.8,-5.98 12.18,-10.6 19.12,-13.85 6.95,-3.26 14.65,-4.88 23.09,-4.88 13.89,0 24.53,3.78 31.92,11.34 7.38,7.56 11.08,18.55 11.08,32.97l0 84.15 -35.09 0 0 -80.45c0,-6.51 -1.58,-11.65 -4.75,-15.43 -3.16,-3.79 -7.82,-5.68 -13.98,-5.68 -4.57,0 -9.36,1.28 -14.37,3.83 -5.02,2.55 -9.55,6.02 -13.59,10.42l0 87.31zm116.6 0l0 -125.83 35.08 0 0 125.83 -35.08 0zm17.67 -152.73c-5.98,0 -10.64,-1.72 -13.98,-5.15 -3.34,-3.43 -5.01,-7.69 -5.01,-12.79 0,-5.1 1.67,-9.37 5.01,-12.8 3.34,-3.42 8,-5.14 13.98,-5.14 5.8,0 10.42,1.72 13.85,5.14 3.43,3.43 5.14,7.7 5.14,12.8 0,5.1 -1.67,9.36 -5.01,12.79 -3.34,3.43 -8,5.15 -13.98,5.15zm130.32 26.9l37.19 0 -44.58 125.83 -40.62 0 -43.27 -125.83 37.46 0 18.47 62.79 7.65 37.98 1.05 0 7.65 -37.98 19 -62.79zm164.87 72.02l-83.63 0 0 1.05c0,10.03 3.52,17.51 10.56,22.43 7.03,4.92 16.09,7.39 27.17,7.39 7.03,0 13.23,-0.71 18.59,-2.12 5.37,-1.4 10.25,-3.07 14.64,-5.01l6.34 24.54c-4.75,2.28 -10.73,4.26 -17.94,5.93 -7.21,1.67 -15.74,2.51 -25.59,2.51 -9.5,0 -18.42,-1.28 -26.78,-3.83 -8.35,-2.55 -15.65,-6.46 -21.89,-11.74 -6.24,-5.27 -11.21,-11.96 -14.91,-20.05 -3.69,-8.09 -5.53,-17.76 -5.53,-29.01 0,-10.03 1.49,-19.13 4.48,-27.31 2.99,-8.17 7.26,-15.16 12.79,-20.97 5.54,-5.8 12.18,-10.33 19.92,-13.58 7.74,-3.26 16.36,-4.88 25.85,-4.88 17.06,0 30.65,5.19 40.76,15.56 10.11,10.38 15.17,24.89 15.17,43.53l0 15.56zm-35.88 -24.01c0,-3.34 -0.4,-6.59 -1.19,-9.76 -0.79,-3.16 -2.06,-5.93 -3.82,-8.3 -1.76,-2.38 -3.96,-4.27 -6.6,-5.68 -2.63,-1.4 -5.89,-2.11 -9.76,-2.11 -7.03,0 -12.84,2.38 -17.41,7.13 -4.57,4.74 -7.3,11.16 -8.17,19.25l46.95 -0.53zm60.68 77.82l0 -125.83 27.16 0 3.96 22.69c2.99,-6.68 7.74,-12.57 14.25,-17.67 6.5,-5.1 14.68,-7.65 24.53,-7.65 4.04,0 7.65,0.44 10.82,1.32 3.16,0.88 5.8,1.93 7.91,3.16l-5.8 27.7c-1.94,-1.06 -4.4,-1.98 -7.39,-2.77 -2.99,-0.79 -6.51,-1.19 -10.55,-1.19 -8.62,0 -15.78,2.86 -21.5,8.58 -5.72,5.71 -8.57,15.08 -8.57,28.09l0 63.57 -34.82 0zm178.85 -95.75c-10.38,-4.93 -20.4,-7.39 -30.07,-7.39 -5.63,0 -9.98,0.97 -13.06,2.9 -3.08,1.94 -4.62,4.58 -4.62,7.92 0,3.34 1.36,6.06 4.09,8.17 2.73,2.12 8.22,4.4 16.49,6.86l7.91 2.38c10.9,3.16 19.17,7.74 24.8,13.71 5.62,5.98 8.44,13.72 8.44,23.22 0,12.48 -4.79,22.42 -14.38,29.81 -9.58,7.38 -22.55,11.08 -38.91,11.08 -16.7,0 -31.04,-2.99 -43,-8.97l7.92 -25.85c5.1,2.63 10.46,4.79 16.09,6.46 5.63,1.67 11.34,2.51 17.15,2.51 7.03,0 12.17,-1.1 15.43,-3.3 3.25,-2.2 4.88,-5.06 4.88,-8.58 0,-3.69 -1.58,-6.55 -4.75,-8.57 -3.17,-2.02 -9.14,-4.26 -17.94,-6.73l-8.18 -2.37c-10.55,-3.52 -18.29,-8.18 -23.21,-13.98 -4.92,-5.81 -7.39,-13.54 -7.39,-23.22 0,-11.43 4.31,-20.75 12.93,-27.96 8.62,-7.21 20.66,-10.81 36.14,-10.81 15.3,0 28.84,2.72 40.62,8.18l-7.38 24.53zm41.68 95.75l0 -125.83 35.08 0 0 125.83 -35.08 0zm17.67 -152.73c-5.98,0 -10.64,-1.72 -13.98,-5.15 -3.34,-3.43 -5.01,-7.69 -5.01,-12.79 0,-5.1 1.67,-9.37 5.01,-12.8 3.34,-3.42 8,-5.14 13.98,-5.14 5.81,0 10.42,1.72 13.85,5.14 3.43,3.43 5.15,7.7 5.15,12.8 0,5.1 -1.68,9.36 -5.02,12.79 -3.34,3.43 -8,5.15 -13.98,5.15zm127.42 52.23l-33.51 0 0 58.03c0,5.98 1.37,10.07 4.09,12.27 2.73,2.2 6.38,3.3 10.95,3.3 3.52,0 7.12,-0.35 10.82,-1.06 3.69,-0.7 6.68,-1.67 8.97,-2.9l5.27 24.53c-2.99,1.41 -7.47,2.82 -13.45,4.22 -5.98,1.41 -12.31,2.11 -19,2.11 -15.3,0 -26.2,-3.03 -32.71,-9.1 -6.5,-6.06 -9.76,-15.16 -9.76,-27.3l0 -64.1 -19.52 0 0 -25.33 19.52 0 0 -38.77 34.82 0 0 38.77 33.51 0 0 25.33zm137.7 46.69l-83.63 0 0 1.05c0,10.03 3.52,17.51 10.55,22.43 7.04,4.92 16.1,7.39 27.18,7.39 7.03,0 13.23,-0.71 18.59,-2.12 5.37,-1.4 10.25,-3.07 14.64,-5.01l6.34 24.54c-4.75,2.28 -10.73,4.26 -17.94,5.93 -7.21,1.67 -15.74,2.51 -25.59,2.51 -9.5,0 -18.42,-1.28 -26.78,-3.83 -8.35,-2.55 -15.65,-6.46 -21.89,-11.74 -6.24,-5.27 -11.21,-11.96 -14.91,-20.05 -3.69,-8.09 -5.53,-17.76 -5.53,-29.01 0,-10.03 1.49,-19.13 4.48,-27.31 2.99,-8.17 7.25,-15.16 12.79,-20.97 5.54,-5.8 12.18,-10.33 19.92,-13.58 7.74,-3.26 16.36,-4.88 25.85,-4.88 17.06,0 30.65,5.19 40.76,15.56 10.11,10.38 15.17,24.89 15.17,43.53l0 15.56zm-35.88 -24.01c0,-3.34 -0.4,-6.59 -1.19,-9.76 -0.79,-3.16 -2.06,-5.93 -3.82,-8.3 -1.76,-2.38 -3.96,-4.27 -6.6,-5.68 -2.63,-1.4 -5.89,-2.11 -9.76,-2.11 -7.03,0 -12.84,2.38 -17.41,7.13 -4.57,4.74 -7.3,11.16 -8.17,19.25l46.95 -0.53zm135.86 -22.68l-33.51 0 0 58.03c0,5.98 1.37,10.07 4.09,12.27 2.73,2.2 6.38,3.3 10.95,3.3 3.52,0 7.12,-0.35 10.82,-1.06 3.69,-0.7 6.68,-1.67 8.97,-2.9l5.27 24.53c-2.99,1.41 -7.47,2.82 -13.45,4.22 -5.98,1.41 -12.31,2.11 -19,2.11 -15.3,0 -26.2,-3.03 -32.71,-9.1 -6.5,-6.06 -9.76,-15.16 -9.76,-27.3l0 -64.1 -19.52 0 0 -25.33 19.52 0 0 -38.77 34.82 0 0 38.77 33.51 0 0 25.33zm28.49 100.5l0 -125.83 35.08 0 0 125.83 -35.08 0zm17.67 -152.73c-5.98,0 -10.64,-1.72 -13.98,-5.15 -3.34,-3.43 -5.01,-7.69 -5.01,-12.79 0,-5.1 1.67,-9.37 5.01,-12.8 3.34,-3.42 8,-5.14 13.98,-5.14 5.8,0 10.42,1.72 13.85,5.14 3.43,3.43 5.14,7.7 5.14,12.8 0,5.1 -1.67,9.36 -5.01,12.79 -3.34,3.43 -8,5.15 -13.98,5.15z"/>
   <path class="fil8" d="M3979.69 4461.47c8.01,0 15.25,3.24 20.5,8.49 5.24,5.25 8.49,12.49 8.49,20.5 0,8 -3.25,15.25 -8.49,20.5 -5.25,5.24 -12.49,8.49 -20.5,8.49 -8,0 -15.25,-3.25 -20.5,-8.49 -5.24,-5.25 -8.49,-12.5 -8.49,-20.5 0,-8.01 3.25,-15.25 8.49,-20.5 5.25,-5.25 12.5,-8.49 20.5,-8.49zm-12.96 44.5l0 -31.02 13.75 0c2.76,0 4.86,0.28 6.3,0.84 1.44,0.56 2.59,1.54 3.45,2.94 0.85,1.41 1.28,2.97 1.28,4.67 0,2.21 -0.72,4.06 -2.14,5.57 -1.42,1.51 -3.62,2.46 -6.59,2.87 1.09,0.52 1.91,1.04 2.48,1.55 1.2,1.1 2.33,2.48 3.39,4.13l5.36 8.45 -5.12 0 -4.1 -6.46c-1.19,-1.87 -2.18,-3.29 -2.96,-4.28 -0.77,-0.99 -1.47,-1.67 -2.08,-2.07 -0.61,-0.39 -1.24,-0.66 -1.87,-0.82 -0.46,-0.1 -1.22,-0.15 -2.28,-0.15l-4.75 0 0 13.78 -4.12 0zm4.12 -17.33l8.8 0c1.88,0 3.34,-0.2 4.4,-0.59 1.05,-0.38 1.85,-1 2.39,-1.86 0.55,-0.85 0.82,-1.77 0.82,-2.78 0,-1.46 -0.52,-2.68 -1.58,-3.62 -1.07,-0.95 -2.74,-1.42 -5.03,-1.42l-9.8 0 0 10.27zm26.93 -16.27c-4.63,-4.63 -11.02,-7.49 -18.09,-7.49 -7.06,0 -13.46,2.86 -18.08,7.49 -4.63,4.63 -7.5,11.02 -7.5,18.09 0,7.06 2.87,13.46 7.5,18.08 4.62,4.63 11.02,7.5 18.08,7.5 7.07,0 13.46,-2.87 18.09,-7.5 4.63,-4.62 7.49,-11.02 7.49,-18.08 0,-7.07 -2.86,-13.46 -7.49,-18.09z"/>
  </g>
  <g id="_1616610856224">
   <path class="fil9" d="M6251.77 204.17l-596.88 0 0 0c0,328.23 268.65,596.88 596.88,596.88l0 0 0 -596.88zm-596.88 454.48l0 0 0 142.4 142.4 0 0 0c0,-78.37 -64.03,-142.4 -142.4,-142.4z"/>
  </g>
  <g id="_1616610859152">
   <path class="fil9" d="M909.68 6440.54l-596.87 0 0 0c0,328.23 268.64,596.87 596.87,596.87l0 0 0 -596.87zm-596.88 454.47l0 0 0 142.4 142.41 0 0 0c0,-78.37 -64.03,-142.4 -142.41,-142.4z"/>
  </g>
 </g>
</svg>
